<svg xmlns="http://www.w3.org/2000/svg" xmlns:xlink="http://www.w3.org/1999/xlink" width="500" zoomAndPan="magnify" viewBox="0 0 375 374.999991" height="500" preserveAspectRatio="xMidYMid meet" version="1.0"><defs><clipPath id="1f75619257"><path d="M 111 197 L 273 197 L 273 297.167969 L 111 297.167969 Z M 111 197 " clip-rule="nonzero"/></clipPath><clipPath id="ada7d7fcd4"><path d="M 140 234 L 145 234 L 145 297.167969 L 140 297.167969 Z M 140 234 " clip-rule="nonzero"/></clipPath><clipPath id="6e06c08e8b"><path d="M 239 234 L 244 234 L 244 297.167969 L 239 297.167969 Z M 239 234 " clip-rule="nonzero"/></clipPath></defs><path fill="#cfac6c" d="M 154.109375 74.328125 C 168.679688 55.914062 192.925781 57.207031 192.925781 57.207031 C 192.925781 57.207031 214.679688 55.914062 229.25 74.328125 C 243.820312 92.746094 248.796875 117.605469 247.203125 141.6875 C 245.605469 165.769531 244.265625 170.734375 250.546875 186.058594 C 256.828125 201.386719 291.84375 261.707031 258.339844 281.238281 L 124.566406 276.699219 C 83.34375 261.980469 126.53125 201.386719 132.8125 186.058594 C 139.09375 170.734375 137.75 165.769531 136.15625 141.6875 C 134.558594 117.605469 139.539062 92.746094 154.109375 74.328125 Z M 154.109375 74.328125 " fill-opacity="1" fill-rule="evenodd"/><path fill="#ffe6e6" d="M 198.933594 179.175781 L 207.75 179.488281 C 207.75 179.488281 203.695312 200.300781 212.28125 215.046875 L 197.085938 215.957031 L 197.054688 216.574219 L 191.914062 216.265625 L 186.769531 216.574219 L 186.738281 215.957031 L 171.546875 215.046875 C 180.132812 200.300781 176.078125 179.488281 176.078125 179.488281 L 184.894531 179.175781 L 184.871094 178.675781 L 191.914062 178.925781 L 198.957031 178.675781 Z M 198.933594 179.175781 " fill-opacity="1" fill-rule="evenodd"/><path fill="#9dccff" d="M 167.074219 208.484375 C 167.074219 208.484375 192.285156 220.203125 214.554688 208.621094 L 215.011719 228.699219 L 194.246094 269.085938 L 176.828125 236.832031 Z M 167.074219 208.484375 " fill-opacity="1" fill-rule="evenodd"/><g clip-path="url(#1f75619257)"><path fill="#424e70" d="M 175.410156 197.921875 C 175.828125 197.910156 176.03125 197.929688 176.03125 197.929688 L 192.664062 257.757812 L 207.46875 198.050781 C 207.46875 198.050781 207.957031 198 208.992188 198.070312 C 216.128906 199.570312 225.835938 202.367188 236.058594 207.578125 L 236.125 207.613281 C 256.546875 218.039062 258.066406 218.242188 262.875 232.957031 L 262.886719 232.996094 L 262.890625 233.007812 L 262.902344 233.035156 L 262.90625 233.050781 L 262.914062 233.078125 L 262.917969 233.09375 L 262.929688 233.125 L 262.929688 233.132812 L 262.945312 233.171875 L 262.949219 233.183594 L 262.957031 233.214844 L 262.960938 233.226562 L 262.96875 233.257812 L 262.976562 233.269531 L 262.984375 233.300781 L 262.988281 233.3125 L 263 233.355469 L 263.015625 233.394531 L 263.019531 233.410156 L 263.027344 233.4375 L 263.03125 233.453125 L 263.039062 233.480469 L 263.046875 233.496094 L 263.054688 233.527344 L 263.058594 233.539062 L 263.070312 233.582031 L 263.074219 233.589844 L 263.082031 233.621094 L 263.089844 233.636719 L 263.101562 233.683594 L 263.109375 233.710938 L 263.113281 233.726562 L 263.128906 233.769531 L 263.128906 233.773438 L 263.140625 233.8125 L 263.144531 233.828125 L 263.152344 233.855469 L 263.160156 233.871094 L 263.171875 233.917969 L 263.183594 233.953125 L 263.183594 233.960938 L 263.199219 234.003906 L 263.199219 234.015625 L 263.210938 234.050781 L 263.214844 234.066406 L 263.222656 234.09375 L 263.226562 234.109375 L 263.238281 234.140625 L 263.242188 234.15625 L 263.253906 234.199219 L 263.253906 234.207031 L 263.265625 234.246094 L 263.273438 234.261719 L 263.296875 234.355469 L 263.3125 234.402344 L 263.324219 234.445312 L 263.339844 234.507812 L 263.351562 234.539062 L 263.355469 234.558594 L 263.378906 234.652344 L 263.382812 234.65625 L 263.394531 234.699219 L 263.410156 234.761719 L 263.421875 234.792969 L 263.425781 234.808594 L 263.433594 234.851562 L 263.4375 234.859375 L 263.449219 234.90625 L 263.464844 234.953125 L 263.46875 234.972656 L 263.480469 235.019531 L 263.492188 235.054688 L 263.507812 235.117188 L 263.507812 235.125 L 263.519531 235.164062 L 263.523438 235.183594 L 263.535156 235.214844 L 263.539062 235.234375 L 263.550781 235.28125 L 263.5625 235.324219 L 263.5625 235.332031 L 263.578125 235.382812 L 263.582031 235.394531 L 263.589844 235.429688 L 263.59375 235.449219 L 263.601562 235.480469 L 263.609375 235.5 L 263.617188 235.535156 L 263.621094 235.550781 L 263.632812 235.601562 L 263.636719 235.609375 L 263.648438 235.652344 L 263.652344 235.667969 L 263.660156 235.703125 L 263.664062 235.71875 L 263.671875 235.753906 L 263.6875 235.816406 L 263.691406 235.820312 L 263.703125 235.875 L 263.707031 235.886719 L 263.714844 235.925781 L 263.722656 235.941406 L 263.730469 235.976562 L 263.742188 236.035156 L 263.746094 236.046875 L 263.761719 236.097656 L 263.761719 236.109375 L 263.773438 236.152344 L 263.777344 236.167969 L 263.785156 236.203125 L 263.789062 236.222656 L 263.800781 236.257812 L 263.804688 236.277344 L 263.816406 236.324219 L 263.816406 236.328125 L 263.828125 236.382812 L 263.832031 236.398438 L 263.84375 236.433594 L 263.847656 236.453125 L 263.855469 236.488281 L 263.863281 236.527344 L 263.882812 236.605469 L 263.886719 236.613281 L 263.90625 236.695312 L 263.910156 236.714844 L 263.929688 236.796875 L 263.953125 236.890625 L 263.953125 236.902344 L 263.976562 236.988281 L 263.980469 237.003906 L 264 237.089844 L 264 237.097656 L 264.019531 237.179688 L 264.023438 237.195312 L 264.042969 237.28125 L 264.046875 237.296875 L 264.066406 237.386719 L 264.089844 237.476562 L 264.09375 237.492188 L 264.113281 237.578125 L 264.117188 237.59375 L 264.136719 237.679688 L 264.136719 237.6875 L 264.15625 237.777344 L 264.160156 237.792969 L 264.179688 237.882812 L 264.183594 237.894531 L 264.203125 237.980469 L 264.207031 237.992188 L 264.226562 238.082031 L 264.230469 238.101562 L 264.25 238.191406 L 264.25 238.199219 L 264.269531 238.285156 L 264.273438 238.300781 L 264.292969 238.390625 L 264.296875 238.410156 L 264.320312 238.503906 L 264.339844 238.597656 L 264.34375 238.617188 L 264.363281 238.707031 L 264.367188 238.722656 L 264.386719 238.808594 L 264.386719 238.820312 L 264.40625 238.914062 L 264.410156 238.933594 L 264.433594 239.027344 L 264.433594 239.039062 L 264.453125 239.125 L 264.457031 239.140625 L 264.476562 239.234375 L 264.480469 239.253906 L 264.5 239.347656 L 264.5 239.355469 L 264.519531 239.449219 L 264.523438 239.464844 L 264.542969 239.558594 L 264.546875 239.578125 L 264.570312 239.671875 L 264.570312 239.675781 L 264.613281 239.890625 L 264.617188 239.902344 L 264.636719 239.996094 L 264.636719 240.007812 L 264.660156 240.125 L 264.683594 240.222656 L 264.683594 240.234375 L 264.703125 240.328125 L 264.707031 240.34375 L 264.730469 240.460938 L 264.769531 240.664062 L 264.773438 240.679688 L 264.792969 240.78125 L 264.796875 240.796875 L 264.816406 240.898438 L 264.816406 240.902344 L 264.839844 241.003906 L 264.84375 241.023438 L 264.863281 241.125 L 264.863281 241.136719 L 264.882812 241.234375 L 264.886719 241.246094 L 264.90625 241.347656 L 264.910156 241.367188 L 264.929688 241.472656 L 264.933594 241.480469 L 264.949219 241.578125 L 264.953125 241.59375 L 264.972656 241.699219 L 264.976562 241.71875 L 264.996094 241.824219 L 265.019531 241.929688 L 265.023438 241.949219 L 265.042969 242.050781 L 265.046875 242.066406 L 265.066406 242.171875 L 265.066406 242.175781 L 265.082031 242.273438 L 265.101562 242.367188 L 265.109375 242.40625 L 265.132812 242.539062 L 265.140625 242.574219 L 265.160156 242.671875 L 265.167969 242.722656 L 265.183594 242.808594 L 265.195312 242.859375 L 265.210938 242.949219 L 265.21875 242.996094 L 265.242188 243.125 L 265.246094 243.132812 L 265.246094 243.140625 L 265.269531 243.269531 L 265.277344 243.316406 L 265.292969 243.40625 L 265.304688 243.457031 L 265.320312 243.546875 L 265.328125 243.597656 L 265.347656 243.699219 L 265.355469 243.734375 L 265.378906 243.871094 L 265.386719 243.914062 L 265.40625 244.011719 L 265.414062 244.0625 L 265.429688 244.152344 L 265.441406 244.207031 L 265.464844 244.347656 L 265.488281 244.484375 L 265.492188 244.503906 L 265.515625 244.625 L 265.523438 244.675781 L 265.539062 244.769531 L 265.550781 244.824219 L 265.566406 244.914062 L 265.574219 244.96875 L 265.59375 245.070312 L 265.601562 245.109375 L 265.625 245.25 L 265.632812 245.292969 L 265.648438 245.394531 L 265.660156 245.449219 L 265.675781 245.539062 L 265.683594 245.59375 L 265.699219 245.6875 L 265.710938 245.742188 L 265.757812 246.023438 L 265.765625 246.078125 L 265.78125 246.171875 L 265.792969 246.230469 L 265.808594 246.320312 L 265.816406 246.375 L 265.835938 246.484375 L 265.84375 246.523438 L 265.867188 246.664062 L 265.875 246.714844 L 265.890625 246.8125 L 265.902344 246.871094 L 265.917969 246.964844 L 265.925781 247.023438 L 265.941406 247.117188 L 265.953125 247.171875 L 265.972656 247.3125 L 265.980469 247.351562 L 266 247.460938 L 266.007812 247.519531 L 266.023438 247.613281 L 266.035156 247.675781 L 266.050781 247.765625 L 266.058594 247.824219 L 266.078125 247.933594 L 266.085938 247.972656 L 266.105469 248.117188 L 266.117188 248.171875 L 266.132812 248.269531 L 266.144531 248.332031 L 266.15625 248.421875 L 266.167969 248.484375 L 266.183594 248.582031 L 266.191406 248.636719 L 266.214844 248.785156 L 266.222656 248.824219 L 266.238281 248.933594 L 266.25 248.996094 L 266.261719 249.089844 L 266.273438 249.152344 L 266.289062 249.242188 L 266.296875 249.304688 L 266.316406 249.414062 L 266.324219 249.460938 L 266.347656 249.605469 L 266.355469 249.667969 L 266.371094 249.761719 L 266.378906 249.828125 L 266.394531 249.914062 L 266.40625 249.980469 L 266.417969 250.078125 L 266.429688 250.136719 L 266.453125 250.285156 L 266.460938 250.332031 L 266.476562 250.441406 L 266.484375 250.503906 L 266.5 250.597656 L 266.511719 250.664062 L 266.523438 250.753906 L 266.535156 250.820312 L 266.550781 250.925781 L 266.558594 250.976562 L 266.582031 251.125 L 266.59375 251.1875 L 266.605469 251.28125 L 266.617188 251.351562 L 266.632812 251.4375 L 266.640625 251.507812 L 266.65625 251.601562 L 266.664062 251.667969 L 266.6875 251.8125 L 266.695312 251.871094 L 266.710938 251.972656 L 266.722656 252.042969 L 266.734375 252.128906 L 266.746094 252.203125 L 266.761719 252.289062 L 266.769531 252.359375 L 266.785156 252.464844 L 266.792969 252.515625 L 266.796875 252.542969 L 266.816406 252.667969 L 266.828125 252.738281 L 266.839844 252.828125 L 266.851562 252.902344 L 266.863281 252.988281 L 266.875 253.0625 L 266.890625 253.152344 L 266.898438 253.222656 L 266.921875 253.371094 L 266.929688 253.4375 L 266.941406 253.53125 L 266.957031 253.605469 L 266.96875 253.691406 L 266.980469 253.765625 L 266.992188 253.855469 L 267 253.925781 L 267.015625 254.027344 L 267.023438 254.085938 L 267.03125 254.125 L 267.046875 254.238281 L 267.058594 254.3125 L 267.070312 254.398438 L 267.082031 254.476562 L 267.09375 254.5625 L 267.105469 254.636719 L 267.117188 254.726562 L 267.152344 254.949219 L 267.160156 255.023438 L 267.175781 255.113281 L 267.183594 255.191406 L 267.195312 255.273438 L 267.210938 255.351562 L 267.21875 255.4375 L 267.230469 255.515625 L 267.246094 255.609375 L 267.253906 255.671875 L 267.261719 255.730469 L 267.277344 255.828125 L 267.289062 255.910156 L 267.296875 255.992188 L 267.3125 256.074219 L 267.320312 256.152344 L 267.335938 256.238281 L 267.347656 256.320312 L 267.355469 256.398438 L 267.378906 256.550781 L 267.390625 256.628906 L 267.402344 256.710938 L 267.414062 256.796875 L 267.421875 256.875 L 267.4375 256.960938 L 267.445312 257.039062 L 267.457031 257.125 L 267.472656 257.207031 L 267.488281 257.355469 L 267.503906 257.4375 L 267.515625 257.523438 L 267.527344 257.601562 L 267.539062 257.6875 L 267.546875 257.765625 L 267.5625 257.851562 L 267.570312 257.929688 L 267.582031 258.015625 L 267.585938 258.035156 L 267.601562 258.164062 L 267.613281 258.253906 L 267.625 258.328125 L 267.636719 258.417969 L 267.648438 258.492188 L 267.660156 258.582031 L 267.671875 258.65625 L 267.683594 258.75 L 267.691406 258.820312 L 267.703125 258.902344 L 267.714844 258.992188 L 267.726562 259.0625 L 267.738281 259.152344 L 267.746094 259.226562 L 267.761719 259.320312 L 267.769531 259.390625 L 267.785156 259.484375 L 267.792969 259.550781 L 267.804688 259.644531 L 267.824219 259.773438 L 267.824219 259.796875 L 267.835938 259.890625 L 267.84375 259.960938 L 267.859375 260.054688 L 267.867188 260.125 L 267.882812 260.21875 L 267.890625 260.289062 L 267.902344 260.386719 L 267.910156 260.441406 L 267.925781 260.539062 L 267.9375 260.636719 L 267.945312 260.695312 L 267.957031 260.796875 L 267.964844 260.863281 L 267.980469 260.960938 L 267.988281 261.027344 L 268 261.125 L 268.011719 261.183594 L 268.023438 261.285156 C 268.027344 261.335938 268.035156 261.386719 268.042969 261.4375 L 268.054688 261.539062 L 268.0625 261.601562 L 268.078125 261.703125 L 268.085938 261.765625 L 268.097656 261.867188 L 268.109375 261.925781 L 268.121094 262.03125 L 268.125 262.058594 L 268.140625 262.183594 L 268.15625 262.292969 L 268.160156 262.339844 L 268.175781 262.445312 L 268.183594 262.507812 L 268.195312 262.609375 L 268.203125 262.667969 L 268.21875 262.773438 L 268.222656 262.824219 L 268.238281 262.933594 C 268.246094 262.984375 268.25 263.035156 268.257812 263.085938 L 268.273438 263.195312 L 268.277344 263.25 L 268.292969 263.355469 L 268.300781 263.410156 L 268.3125 263.519531 L 268.320312 263.570312 L 268.335938 263.6875 C 268.34375 263.734375 268.347656 263.785156 268.355469 263.835938 L 268.371094 263.957031 L 268.375 263.992188 L 268.386719 264.105469 L 268.394531 264.15625 L 268.410156 264.265625 L 268.414062 264.316406 L 268.429688 264.433594 L 268.449219 264.589844 C 268.457031 264.636719 268.464844 264.6875 268.46875 264.738281 L 268.484375 264.855469 L 268.488281 264.898438 L 268.503906 265.015625 L 268.511719 265.066406 L 268.527344 265.179688 L 268.53125 265.21875 L 268.546875 265.339844 L 268.582031 265.636719 L 268.582031 265.640625 L 268.617188 265.933594 L 268.625 265.953125 L 268.660156 266.242188 L 268.695312 266.535156 L 268.695312 266.550781 L 268.734375 266.839844 L 268.734375 266.851562 L 268.804688 267.4375 L 268.808594 267.453125 L 268.84375 267.746094 C 268.855469 267.847656 268.867188 267.945312 268.882812 268.046875 L 268.917969 268.339844 L 268.917969 268.355469 L 268.953125 268.648438 L 268.992188 268.945312 L 268.992188 268.949219 L 269.027344 269.242188 L 269.027344 269.253906 L 269.0625 269.546875 L 269.097656 269.84375 L 269.097656 269.847656 L 269.132812 270.144531 L 269.132812 270.148438 L 269.171875 270.445312 L 269.207031 270.738281 L 269.207031 270.746094 L 269.242188 271.039062 C 269.253906 271.140625 269.265625 271.242188 269.277344 271.339844 L 269.3125 271.632812 L 269.3125 271.640625 C 269.5 273.210938 269.675781 274.765625 269.851562 276.292969 L 269.867188 276.449219 L 269.886719 276.617188 L 269.90625 276.804688 L 269.921875 276.910156 L 269.9375 277.074219 L 269.957031 277.226562 L 269.976562 277.398438 L 269.992188 277.546875 L 270.011719 277.71875 L 270.027344 277.863281 L 270.046875 278.035156 L 270.0625 278.179688 L 270.082031 278.339844 L 270.097656 278.492188 L 270.113281 278.636719 L 270.128906 278.808594 L 270.148438 278.949219 L 270.164062 279.125 L 270.183594 279.261719 L 270.203125 279.4375 L 270.214844 279.574219 L 270.234375 279.75 L 270.246094 279.847656 L 270.265625 280.03125 L 270.285156 280.207031 L 270.300781 280.335938 L 270.316406 280.511719 L 270.332031 280.644531 L 270.351562 280.816406 L 270.367188 280.945312 L 270.382812 281.125 L 270.398438 281.242188 L 270.417969 281.414062 L 270.4375 281.597656 L 270.445312 281.699219 L 270.46875 281.878906 L 270.480469 282 L 270.5 282.179688 L 270.511719 282.300781 L 270.53125 282.476562 L 270.542969 282.59375 L 270.5625 282.773438 C 270.574219 282.863281 270.582031 282.953125 270.59375 283.042969 L 270.609375 283.226562 L 270.625 283.332031 L 270.640625 283.511719 L 270.65625 283.625 L 270.671875 283.804688 L 270.683594 283.914062 L 270.703125 284.09375 L 270.710938 284.175781 L 270.734375 284.371094 L 270.753906 284.570312 L 270.761719 284.636719 L 270.78125 284.824219 L 270.792969 284.925781 L 270.808594 285.105469 L 270.820312 285.207031 L 270.839844 285.390625 L 270.851562 285.476562 L 270.867188 285.664062 C 270.878906 285.75 270.886719 285.835938 270.894531 285.921875 L 270.914062 286.109375 L 270.925781 286.195312 L 270.945312 286.375 L 270.953125 286.46875 L 270.96875 286.648438 L 270.980469 286.742188 L 271 286.925781 L 271.003906 286.96875 L 271.027344 287.179688 L 271.046875 287.394531 L 271.050781 287.429688 L 271.074219 287.617188 L 271.082031 287.703125 L 271.097656 287.878906 L 271.109375 287.964844 L 271.125 288.144531 L 271.132812 288.210938 L 271.152344 288.402344 C 271.160156 288.480469 271.167969 288.5625 271.175781 288.640625 L 271.195312 288.832031 L 271.203125 288.894531 L 271.21875 289.074219 L 271.226562 289.152344 L 271.246094 289.332031 L 271.253906 289.398438 L 271.273438 289.585938 L 271.296875 289.820312 L 271.316406 290.035156 L 271.320312 290.054688 L 271.339844 290.234375 L 271.34375 290.300781 L 271.363281 290.480469 L 271.371094 290.546875 L 271.386719 290.726562 L 271.394531 290.769531 L 271.410156 290.957031 C 271.417969 291.03125 271.425781 291.105469 271.433594 291.179688 L 271.453125 291.367188 L 271.457031 291.414062 L 271.472656 291.585938 L 271.480469 291.648438 L 271.496094 291.824219 L 271.503906 291.875 L 271.519531 292.054688 C 271.527344 292.125 271.535156 292.195312 271.542969 292.269531 L 271.5625 292.480469 L 271.578125 292.660156 L 271.585938 292.707031 L 271.601562 292.875 L 271.605469 292.929688 L 271.625 293.101562 L 271.625 293.125 L 271.644531 293.3125 C 271.652344 293.378906 271.660156 293.445312 271.664062 293.511719 L 271.683594 293.691406 L 271.6875 293.722656 L 271.699219 293.886719 L 271.707031 293.9375 L 271.722656 294.101562 L 271.726562 294.136719 L 271.742188 294.304688 C 271.753906 294.433594 271.765625 294.5625 271.78125 294.691406 L 271.816406 295.058594 L 271.816406 295.078125 L 271.886719 295.789062 L 271.886719 295.796875 L 271.921875 296.140625 L 271.921875 296.152344 L 271.953125 296.488281 L 271.984375 296.8125 L 271.984375 296.828125 L 272.015625 297.144531 L 111.652344 297.144531 L 111.683594 296.828125 L 111.683594 296.8125 L 111.714844 296.488281 L 111.75 296.152344 L 111.75 296.140625 L 111.78125 295.796875 L 111.785156 295.789062 L 111.816406 295.433594 L 111.851562 295.078125 L 111.855469 295.058594 L 111.890625 294.691406 C 111.902344 294.5625 111.914062 294.433594 111.925781 294.304688 L 111.945312 294.136719 L 111.949219 294.101562 L 111.964844 293.9375 L 111.96875 293.886719 L 111.984375 293.722656 L 111.988281 293.691406 L 112.003906 293.511719 C 112.011719 293.445312 112.019531 293.378906 112.023438 293.3125 L 112.042969 293.125 L 112.046875 293.101562 L 112.0625 292.929688 L 112.066406 292.875 L 112.085938 292.707031 L 112.089844 292.660156 L 112.105469 292.480469 L 112.128906 292.269531 C 112.132812 292.195312 112.140625 292.125 112.148438 292.054688 L 112.167969 291.875 L 112.171875 291.824219 L 112.1875 291.648438 L 112.195312 291.585938 L 112.210938 291.414062 L 112.21875 291.367188 L 112.234375 291.179688 C 112.242188 291.105469 112.25 291.03125 112.257812 290.957031 L 112.277344 290.769531 L 112.28125 290.726562 L 112.300781 290.546875 L 112.304688 290.480469 L 112.324219 290.300781 L 112.332031 290.234375 L 112.347656 290.054688 L 112.351562 290.035156 L 112.371094 289.820312 L 112.394531 289.585938 L 112.414062 289.398438 L 112.421875 289.332031 L 112.441406 289.152344 L 112.449219 289.074219 L 112.46875 288.894531 L 112.472656 288.832031 L 112.492188 288.640625 C 112.5 288.5625 112.507812 288.480469 112.515625 288.402344 L 112.535156 288.210938 L 112.542969 288.144531 L 112.5625 287.964844 L 112.570312 287.878906 L 112.589844 287.703125 L 112.597656 287.617188 L 112.617188 287.429688 L 112.621094 287.394531 L 112.644531 287.179688 L 112.664062 286.96875 L 112.667969 286.925781 L 112.6875 286.742188 L 112.699219 286.648438 L 112.714844 286.46875 L 112.726562 286.375 L 112.746094 286.195312 L 112.753906 286.109375 L 112.773438 285.921875 C 112.78125 285.835938 112.792969 285.75 112.800781 285.664062 L 112.820312 285.476562 L 112.828125 285.390625 L 112.847656 285.207031 L 112.859375 285.105469 L 112.878906 284.925781 L 112.890625 284.824219 L 112.910156 284.636719 L 112.914062 284.570312 L 112.9375 284.371094 L 112.957031 284.175781 L 112.964844 284.09375 L 112.984375 283.914062 L 112.996094 283.804688 L 113.015625 283.625 L 113.027344 283.511719 L 113.046875 283.332031 L 113.058594 283.226562 L 113.078125 283.042969 C 113.085938 282.953125 113.097656 282.863281 113.105469 282.773438 L 113.125 282.59375 L 113.136719 282.476562 L 113.15625 282.300781 L 113.171875 282.179688 L 113.191406 282 L 113.203125 281.878906 L 113.222656 281.699219 L 113.234375 281.597656 L 113.253906 281.414062 L 113.273438 281.242188 L 113.285156 281.125 L 113.304688 280.945312 L 113.316406 280.816406 L 113.335938 280.644531 L 113.351562 280.511719 L 113.371094 280.335938 L 113.382812 280.207031 L 113.402344 280.03125 L 113.421875 279.847656 L 113.433594 279.75 L 113.453125 279.574219 L 113.46875 279.4375 L 113.488281 279.261719 L 113.503906 279.125 L 113.539062 278.808594 L 113.558594 278.636719 L 113.574219 278.492188 L 113.589844 278.339844 L 113.609375 278.179688 L 113.625 278.035156 L 113.644531 277.863281 L 113.660156 277.71875 L 113.679688 277.546875 L 113.695312 277.398438 L 113.714844 277.226562 L 113.730469 277.074219 L 113.75 276.910156 L 113.761719 276.804688 L 113.78125 276.617188 L 113.800781 276.449219 L 113.820312 276.292969 C 113.992188 274.765625 114.171875 273.210938 114.355469 271.640625 L 114.359375 271.632812 L 114.390625 271.339844 C 114.402344 271.242188 114.414062 271.140625 114.429688 271.039062 L 114.460938 270.746094 L 114.464844 270.738281 L 114.5 270.445312 L 114.535156 270.148438 L 114.535156 270.144531 L 114.570312 269.847656 L 114.570312 269.84375 L 114.605469 269.546875 L 114.640625 269.253906 L 114.644531 269.242188 L 114.679688 268.949219 L 114.679688 268.945312 L 114.714844 268.648438 L 114.75 268.355469 L 114.753906 268.339844 L 114.789062 268.046875 C 114.800781 267.945312 114.8125 267.847656 114.824219 267.746094 L 114.859375 267.453125 L 114.863281 267.4375 L 114.933594 266.851562 L 114.9375 266.839844 L 114.972656 266.550781 L 114.976562 266.535156 L 115.011719 266.242188 L 115.046875 265.953125 L 115.050781 265.933594 L 115.085938 265.640625 L 115.085938 265.636719 L 115.125 265.339844 L 115.140625 265.21875 L 115.144531 265.179688 L 115.160156 265.066406 L 115.164062 265.015625 L 115.179688 264.898438 L 115.183594 264.855469 L 115.199219 264.738281 C 115.207031 264.6875 115.210938 264.636719 115.21875 264.589844 L 115.238281 264.433594 L 115.253906 264.316406 L 115.261719 264.265625 L 115.273438 264.15625 L 115.28125 264.105469 L 115.296875 263.992188 L 115.300781 263.957031 L 115.316406 263.835938 C 115.320312 263.785156 115.328125 263.734375 115.335938 263.6875 L 115.347656 263.570312 L 115.355469 263.519531 L 115.371094 263.410156 L 115.375 263.355469 L 115.390625 263.25 L 115.398438 263.195312 L 115.410156 263.085938 C 115.417969 263.035156 115.425781 262.984375 115.429688 262.933594 L 115.445312 262.824219 L 115.453125 262.773438 L 115.464844 262.667969 L 115.472656 262.609375 L 115.488281 262.507812 L 115.496094 262.445312 L 115.507812 262.339844 L 115.515625 262.292969 L 115.527344 262.183594 L 115.542969 262.058594 L 115.546875 262.03125 L 115.5625 261.925781 L 115.570312 261.867188 L 115.582031 261.765625 L 115.589844 261.703125 L 115.605469 261.601562 L 115.613281 261.539062 L 115.625 261.4375 C 115.632812 261.386719 115.640625 261.335938 115.644531 261.285156 L 115.660156 261.183594 L 115.667969 261.125 L 115.679688 261.027344 L 115.691406 260.960938 L 115.703125 260.863281 L 115.710938 260.796875 L 115.722656 260.695312 L 115.734375 260.636719 L 115.757812 260.441406 L 115.765625 260.386719 L 115.777344 260.289062 L 115.789062 260.21875 L 115.800781 260.125 L 115.808594 260.054688 L 115.824219 259.960938 L 115.832031 259.890625 L 115.84375 259.796875 L 115.847656 259.773438 L 115.863281 259.644531 L 115.878906 259.550781 L 115.886719 259.484375 L 115.898438 259.390625 L 115.910156 259.320312 L 115.921875 259.226562 L 115.929688 259.152344 L 115.945312 259.0625 L 115.953125 258.992188 L 115.964844 258.902344 L 115.976562 258.820312 L 115.988281 258.75 L 116 258.65625 L 116.007812 258.582031 L 116.019531 258.492188 L 116.03125 258.417969 L 116.042969 258.328125 L 116.054688 258.253906 L 116.066406 258.164062 L 116.085938 258.035156 L 116.085938 258.015625 L 116.097656 257.929688 L 116.109375 257.851562 L 116.121094 257.765625 L 116.132812 257.6875 L 116.144531 257.601562 L 116.15625 257.523438 L 116.167969 257.4375 L 116.179688 257.355469 L 116.1875 257.28125 L 116.199219 257.207031 L 116.210938 257.125 L 116.222656 257.039062 L 116.234375 256.960938 L 116.246094 256.875 L 116.257812 256.796875 L 116.269531 256.710938 L 116.28125 256.628906 L 116.292969 256.550781 L 116.3125 256.398438 L 116.324219 256.320312 L 116.335938 256.238281 L 116.347656 256.152344 L 116.359375 256.074219 L 116.394531 255.828125 L 116.40625 255.730469 L 116.414062 255.671875 L 116.425781 255.609375 L 116.4375 255.515625 L 116.449219 255.4375 L 116.460938 255.351562 L 116.472656 255.273438 L 116.484375 255.191406 L 116.496094 255.113281 L 116.507812 255.023438 L 116.519531 254.949219 L 116.539062 254.800781 L 116.550781 254.726562 L 116.5625 254.636719 L 116.574219 254.5625 L 116.585938 254.476562 L 116.597656 254.398438 L 116.609375 254.3125 L 116.621094 254.238281 L 116.636719 254.125 L 116.644531 254.085938 L 116.652344 254.027344 L 116.667969 253.925781 L 116.679688 253.855469 L 116.691406 253.765625 L 116.703125 253.691406 L 116.714844 253.605469 L 116.726562 253.53125 L 116.738281 253.4375 L 116.75 253.371094 L 116.769531 253.222656 L 116.78125 253.152344 L 116.792969 253.0625 L 116.804688 252.988281 L 116.820312 252.902344 L 116.828125 252.828125 L 116.84375 252.738281 L 116.851562 252.667969 L 116.871094 252.542969 L 116.875 252.515625 L 116.882812 252.464844 L 116.898438 252.359375 L 116.910156 252.289062 L 116.921875 252.203125 L 116.933594 252.128906 L 116.949219 252.042969 L 116.957031 251.972656 L 116.972656 251.871094 L 116.980469 251.8125 L 117.003906 251.667969 L 117.015625 251.601562 L 117.027344 251.507812 L 117.039062 251.4375 L 117.050781 251.351562 L 117.078125 251.1875 L 117.085938 251.125 L 117.109375 250.976562 L 117.117188 250.925781 L 117.132812 250.820312 L 117.144531 250.753906 L 117.15625 250.664062 L 117.167969 250.597656 L 117.183594 250.503906 L 117.191406 250.441406 L 117.210938 250.332031 L 117.21875 250.285156 L 117.242188 250.136719 L 117.25 250.078125 L 117.265625 249.980469 L 117.273438 249.914062 L 117.289062 249.828125 L 117.300781 249.761719 L 117.3125 249.667969 L 117.324219 249.605469 L 117.347656 249.460938 L 117.355469 249.414062 L 117.371094 249.304688 L 117.382812 249.242188 L 117.394531 249.152344 L 117.40625 249.089844 L 117.421875 248.996094 L 117.429688 248.933594 L 117.449219 248.824219 L 117.453125 248.785156 L 117.476562 248.636719 L 117.488281 248.582031 L 117.503906 248.484375 L 117.511719 248.421875 L 117.527344 248.332031 L 117.539062 248.269531 L 117.554688 248.171875 L 117.5625 248.117188 L 117.585938 247.972656 L 117.59375 247.933594 L 117.609375 247.824219 L 117.621094 247.765625 L 117.636719 247.675781 L 117.644531 247.613281 L 117.660156 247.519531 L 117.667969 247.460938 L 117.6875 247.351562 L 117.695312 247.3125 L 117.71875 247.171875 L 117.726562 247.117188 L 117.742188 247.023438 L 117.753906 246.964844 L 117.769531 246.871094 L 117.777344 246.8125 L 117.792969 246.714844 L 117.800781 246.664062 L 117.828125 246.523438 L 117.832031 246.484375 L 117.851562 246.375 L 117.859375 246.320312 L 117.875 246.230469 L 117.886719 246.171875 L 117.902344 246.078125 L 117.910156 246.023438 L 117.929688 245.90625 L 117.9375 245.882812 L 117.960938 245.742188 L 117.96875 245.6875 L 117.984375 245.59375 L 117.996094 245.539062 L 118.011719 245.449219 L 118.019531 245.394531 L 118.039062 245.292969 L 118.046875 245.25 L 118.070312 245.109375 L 118.078125 245.070312 L 118.09375 244.96875 L 118.105469 244.914062 L 118.121094 244.824219 L 118.128906 244.769531 L 118.144531 244.675781 L 118.15625 244.625 L 118.175781 244.503906 L 118.179688 244.484375 L 118.203125 244.347656 L 118.210938 244.300781 L 118.230469 244.207031 L 118.238281 244.152344 L 118.253906 244.0625 L 118.265625 244.011719 L 118.28125 243.914062 L 118.289062 243.871094 L 118.3125 243.734375 L 118.320312 243.699219 L 118.339844 243.597656 L 118.347656 243.546875 L 118.363281 243.457031 L 118.375 243.40625 L 118.390625 243.316406 L 118.398438 243.269531 L 118.421875 243.140625 L 118.425781 243.132812 L 118.425781 243.125 L 118.449219 242.996094 L 118.457031 242.949219 L 118.476562 242.859375 L 118.484375 242.808594 L 118.5 242.722656 L 118.511719 242.671875 L 118.527344 242.574219 L 118.535156 242.539062 L 118.558594 242.40625 L 118.566406 242.367188 L 118.585938 242.273438 L 118.605469 242.175781 L 118.605469 242.171875 L 118.625 242.066406 L 118.628906 242.050781 L 118.648438 241.949219 L 118.652344 241.929688 L 118.691406 241.71875 L 118.695312 241.699219 L 118.714844 241.59375 L 118.71875 241.578125 L 118.738281 241.480469 L 118.738281 241.472656 L 118.757812 241.367188 L 118.761719 241.347656 L 118.785156 241.246094 L 118.785156 241.234375 L 118.804688 241.136719 L 118.808594 241.125 L 118.828125 241.023438 L 118.832031 241.003906 L 118.851562 240.902344 L 118.851562 240.898438 L 118.871094 240.796875 L 118.875 240.78125 L 118.894531 240.679688 L 118.898438 240.664062 L 118.917969 240.5625 L 118.941406 240.460938 L 118.964844 240.34375 L 118.964844 240.328125 L 118.984375 240.234375 L 118.988281 240.222656 L 119.03125 240.007812 L 119.035156 239.996094 L 119.054688 239.902344 L 119.054688 239.890625 L 119.078125 239.773438 L 119.101562 239.675781 L 119.101562 239.671875 L 119.121094 239.578125 L 119.125 239.558594 L 119.144531 239.464844 L 119.148438 239.449219 L 119.167969 239.355469 L 119.167969 239.347656 L 119.1875 239.253906 L 119.191406 239.234375 L 119.214844 239.140625 L 119.214844 239.125 L 119.234375 239.039062 L 119.238281 239.027344 L 119.257812 238.933594 L 119.261719 238.914062 L 119.28125 238.820312 L 119.285156 238.808594 L 119.300781 238.722656 L 119.304688 238.707031 L 119.324219 238.617188 L 119.328125 238.597656 L 119.351562 238.503906 L 119.371094 238.410156 L 119.375 238.390625 L 119.394531 238.300781 L 119.398438 238.285156 L 119.417969 238.199219 L 119.417969 238.191406 L 119.4375 238.101562 L 119.441406 238.082031 L 119.464844 237.992188 L 119.464844 237.980469 L 119.484375 237.894531 L 119.488281 237.882812 L 119.507812 237.792969 L 119.511719 237.777344 L 119.53125 237.6875 L 119.535156 237.679688 L 119.554688 237.59375 L 119.558594 237.578125 L 119.578125 237.492188 L 119.582031 237.476562 L 119.621094 237.296875 L 119.625 237.28125 L 119.644531 237.195312 L 119.648438 237.179688 L 119.667969 237.097656 L 119.671875 237.089844 L 119.691406 237.003906 L 119.695312 236.988281 L 119.714844 236.902344 L 119.71875 236.890625 L 119.734375 236.8125 L 119.738281 236.796875 L 119.757812 236.714844 L 119.761719 236.695312 L 119.785156 236.613281 L 119.785156 236.605469 L 119.804688 236.527344 L 119.8125 236.488281 L 119.824219 236.453125 L 119.828125 236.433594 L 119.835938 236.398438 L 119.839844 236.382812 L 119.851562 236.328125 L 119.855469 236.324219 L 119.867188 236.277344 L 119.871094 236.257812 L 119.878906 236.222656 L 119.882812 236.203125 L 119.890625 236.167969 L 119.898438 236.152344 L 119.90625 236.109375 L 119.910156 236.097656 L 119.921875 236.046875 L 119.925781 236.035156 L 119.933594 235.996094 L 119.941406 235.976562 L 119.949219 235.941406 L 119.953125 235.925781 L 119.960938 235.886719 L 119.964844 235.875 L 119.980469 235.820312 L 119.980469 235.816406 L 119.996094 235.753906 L 120.003906 235.71875 L 120.011719 235.703125 L 120.019531 235.667969 L 120.023438 235.652344 L 120.035156 235.609375 L 120.035156 235.601562 L 120.046875 235.550781 L 120.050781 235.535156 L 120.0625 235.5 L 120.066406 235.480469 L 120.074219 235.449219 L 120.078125 235.429688 L 120.09375 235.382812 L 120.105469 235.332031 L 120.109375 235.324219 L 120.117188 235.28125 L 120.121094 235.265625 L 120.132812 235.234375 L 120.136719 235.214844 L 120.144531 235.183594 L 120.148438 235.164062 L 120.160156 235.125 L 120.160156 235.117188 L 120.175781 235.070312 L 120.179688 235.054688 L 120.1875 235.019531 L 120.191406 235.003906 L 120.203125 234.972656 L 120.207031 234.953125 L 120.214844 234.917969 L 120.21875 234.90625 L 120.230469 234.859375 L 120.234375 234.851562 L 120.246094 234.808594 L 120.269531 234.714844 L 120.277344 234.699219 L 120.285156 234.65625 L 120.289062 234.652344 L 120.304688 234.589844 L 120.316406 234.558594 L 120.320312 234.539062 L 120.34375 234.445312 L 120.359375 234.402344 L 120.359375 234.390625 L 120.371094 234.355469 L 120.382812 234.308594 L 120.390625 234.292969 L 120.402344 234.246094 L 120.414062 234.207031 L 120.414062 234.199219 L 120.429688 234.15625 L 120.445312 234.09375 L 120.453125 234.066406 L 120.457031 234.050781 L 120.472656 234.003906 L 120.484375 233.960938 L 120.488281 233.953125 L 120.496094 233.917969 L 120.503906 233.902344 L 120.515625 233.855469 L 120.523438 233.828125 L 120.527344 233.8125 L 120.539062 233.773438 L 120.542969 233.769531 L 120.554688 233.726562 L 120.558594 233.710938 L 120.566406 233.683594 L 120.574219 233.667969 L 120.59375 233.589844 L 120.597656 233.582031 L 120.613281 233.539062 L 120.613281 233.527344 L 120.625 233.496094 L 120.628906 233.480469 L 120.636719 233.453125 L 120.640625 233.4375 L 120.652344 233.410156 L 120.65625 233.394531 L 120.667969 233.355469 L 120.679688 233.3125 L 120.683594 233.300781 L 120.695312 233.269531 L 120.699219 233.257812 L 120.707031 233.226562 L 120.710938 233.214844 L 120.722656 233.183594 L 120.726562 233.171875 L 120.738281 233.132812 L 120.742188 233.125 L 120.753906 233.078125 L 120.765625 233.050781 L 120.769531 233.035156 L 120.777344 233.007812 L 120.78125 232.996094 L 120.796875 232.957031 C 125.601562 218.242188 127.121094 218.039062 147.546875 207.613281 L 147.609375 207.578125 L 147.664062 207.550781 C 148.976562 206.882812 150.304688 206.242188 151.640625 205.632812 C 155.296875 203.960938 159.050781 202.5 162.867188 201.246094 C 166.960938 199.898438 171.128906 198.792969 175.347656 197.933594 Z M 175.410156 197.921875 " fill-opacity="1" fill-rule="evenodd"/></g><g clip-path="url(#ada7d7fcd4)"><path fill="#3a3e4a" d="M 144.675781 297.144531 L 140.132812 234 C 140.132812 245.714844 140.199219 257.464844 140.859375 269.171875 C 141.390625 278.542969 142.304688 287.882812 143.875 297.144531 Z M 144.675781 297.144531 " fill-opacity="1" fill-rule="evenodd"/></g><g clip-path="url(#6e06c08e8b)"><path fill="#3a3e4a" d="M 239.273438 297.144531 L 243.820312 234 C 243.820312 245.714844 243.753906 257.464844 243.089844 269.171875 C 242.558594 278.542969 241.644531 287.882812 240.078125 297.144531 Z M 239.273438 297.144531 " fill-opacity="1" fill-rule="evenodd"/></g><path fill="#ffe6e6" d="M 228.78125 136.046875 C 228.78125 136.046875 230.015625 127.113281 237.734375 129.128906 C 245.457031 131.144531 241.917969 139.742188 240.960938 143.410156 C 240.007812 147.074219 232.683594 154.261719 228.554688 150.304688 C 224.425781 146.34375 228.78125 136.046875 228.78125 136.046875 Z M 228.78125 136.046875 " fill-opacity="1" fill-rule="evenodd"/><path fill="#ffe6e6" d="M 155.222656 136.046875 C 155.222656 136.046875 153.988281 127.113281 146.269531 129.128906 C 138.546875 131.144531 142.085938 139.742188 143.042969 143.410156 C 143.996094 147.074219 151.320312 154.261719 155.449219 150.304688 C 159.578125 146.34375 155.222656 136.046875 155.222656 136.046875 Z M 155.222656 136.046875 " fill-opacity="1" fill-rule="evenodd"/><path fill="#ffe6e6" d="M 152.144531 137.425781 C 142.902344 85.15625 197.507812 75.207031 197.792969 75.292969 C 212.640625 79.675781 238.652344 98.785156 231.523438 134.734375 C 229.578125 144.554688 228.433594 155.964844 224.449219 164.453125 C 216.421875 181.558594 202.605469 187.203125 191.679688 187.203125 C 180.757812 187.203125 167.128906 180.441406 158.910156 164.453125 C 155.003906 156.855469 153.769531 146.605469 152.144531 137.425781 Z M 152.144531 137.425781 " fill-opacity="1" fill-rule="evenodd"/><path fill="#e7cb97" d="M 137.097656 133.9375 C 136.8125 139.890625 136.667969 146.820312 136.0625 153.507812 C 135.65625 157.984375 135.046875 162.351562 134.050781 166.230469 C 132.746094 171.285156 130.515625 177.171875 127.917969 182.894531 C 125.3125 188.636719 122.34375 194.214844 119.5625 198.632812 C 117.101562 202.546875 109.011719 210.953125 105.902344 224.757812 C 104.109375 232.726562 103.960938 242.488281 107.523438 254.226562 C 107.953125 255.632812 108.070312 256.652344 108.265625 257.390625 C 108.457031 258.097656 108.722656 258.597656 109.214844 258.972656 C 109.796875 259.414062 110.773438 259.675781 112.625 259.761719 C 113.015625 259.78125 113.347656 259.484375 113.367188 259.09375 C 113.386719 258.703125 113.085938 258.367188 112.699219 258.351562 C 111.296875 258.269531 110.535156 258.164062 110.09375 257.824219 C 109.761719 257.566406 109.699219 257.160156 109.585938 256.597656 C 109.441406 255.890625 109.300781 254.976562 108.957031 253.800781 C 105.617188 242.363281 105.835938 232.882812 107.660156 225.164062 C 110.84375 211.6875 118.894531 203.570312 121.34375 199.765625 C 124.214844 195.304688 127.296875 189.664062 130.007812 183.855469 C 132.726562 178.023438 135.066406 172.023438 136.453125 166.863281 C 137.527344 162.871094 138.207031 158.371094 138.671875 153.753906 C 139.351562 147.035156 139.574219 140.070312 139.921875 134.085938 C 139.960938 133.304688 139.363281 132.640625 138.582031 132.597656 C 137.804688 132.558594 137.136719 133.15625 137.097656 133.9375 Z M 137.097656 133.9375 " fill-opacity="1" fill-rule="evenodd"/><path fill="#e7cb97" d="M 232.476562 125.375 C 232.488281 125.253906 232.484375 125.132812 232.46875 125.007812 C 232.351562 124.238281 231.628906 123.707031 230.855469 123.824219 C 230.660156 123.851562 229.667969 124.070312 229.644531 125.246094 C 229.640625 125.363281 229.652344 125.617188 229.6875 125.960938 C 229.824219 127.445312 230.304688 131.078125 230.40625 131.605469 C 230.976562 134.644531 230.976562 140.554688 230.660156 146.457031 C 230.347656 152.363281 229.710938 158.265625 228.96875 161.320312 C 227.058594 169.144531 223.773438 175.914062 222.046875 183.1875 C 221.285156 186.386719 220.820312 189.683594 220.886719 193.195312 C 221.0625 202.507812 224.996094 211.429688 230.585938 218.335938 C 237.160156 226.457031 246.015625 231.765625 253.644531 231.722656 C 254.035156 231.722656 254.351562 231.402344 254.351562 231.015625 C 254.351562 230.625 254.035156 230.304688 253.644531 230.304688 C 246.398438 230.265625 238.085938 225.046875 231.929688 217.257812 C 226.667969 210.609375 222.984375 202.058594 222.917969 193.167969 C 222.894531 189.835938 223.375 186.722656 224.128906 183.695312 C 225.941406 176.441406 229.304688 169.707031 231.304688 161.902344 C 232.109375 158.765625 232.84375 152.695312 233.238281 146.609375 C 233.636719 140.453125 233.675781 134.289062 233.117188 131.113281 C 233.027344 130.609375 232.613281 127.132812 232.496094 125.710938 C 232.488281 125.59375 232.480469 125.453125 232.476562 125.375 Z M 232.476562 125.375 " fill-opacity="1" fill-rule="evenodd"/><path fill="#e7cb97" d="M 167.855469 94.714844 C 167.855469 94.714844 176.214844 106.355469 188.910156 113.136719 C 201.605469 119.917969 208.140625 118.980469 208.140625 118.980469 C 208.140625 118.980469 203.332031 116.078125 200.664062 108.050781 C 200.664062 108.050781 214.722656 126.917969 233.25 129.070312 C 233.25 129.070312 237.160156 148.445312 230.652344 170.21875 C 222.808594 196.460938 229.585938 205.140625 240.886719 221.730469 C 252.1875 238.316406 262.925781 246.5 263.445312 261.515625 C 263.964844 276.535156 271.257812 274.957031 274.609375 269.824219 C 277.960938 264.691406 282.605469 252.578125 266.667969 216.792969 C 250.734375 181.003906 245.21875 187.601562 247.359375 154.691406 C 249.503906 121.777344 246.996094 67.648438 204.71875 58.292969 C 162.445312 48.9375 149.140625 79.277344 144.179688 88.875 C 139.21875 98.472656 133.105469 115.074219 134.082031 145.375 C 135.058594 175.671875 137.304688 173.292969 125.277344 197.082031 C 113.25 220.867188 108.386719 227.511719 106.660156 240.378906 C 104.929688 253.246094 104.398438 264.039062 113.882812 272.246094 C 123.367188 280.453125 133.496094 265.945312 136.074219 254.761719 C 138.65625 243.578125 137.65625 219.910156 142.316406 204.988281 C 146.972656 190.0625 153.5625 178.019531 152.964844 162.230469 C 152.367188 146.441406 153.859375 119.535156 158.394531 110.730469 C 162.933594 101.921875 167.855469 94.714844 167.855469 94.714844 Z M 167.855469 94.714844 " fill-opacity="1" fill-rule="evenodd"/><path stroke-linecap="round" transform="matrix(0.0207917, 0, 0, 0.0207944, 57.616914, 37.091442)" fill-opacity="1" fill="#cfac6c" fill-rule="evenodd" stroke-linejoin="round" d="M 7231.348026 4239.912277 C 7193.960766 4246.487069 7158.264387 4221.502861 7151.500863 4184.120475 C 7144.737338 4146.738089 7169.349052 4110.858512 7206.736312 4103.908018 C 7329.043379 4082.117281 7526.876468 4098.648185 7845.701493 4217.933688 C 7845.701493 4217.933688 7727.15194 4196.894355 7487.046824 4201.402784 C 7404.381525 4202.905593 7317.958714 4224.884182 7231.348026 4239.912277 Z M 7231.348026 4239.912277 " stroke="#cfac6c" stroke-width="85.830002" stroke-opacity="1" stroke-miterlimit="1.5"/><path stroke-linecap="round" transform="matrix(-0.0207917, 0, 0, 0.0207944, 326.051995, 37.091442)" fill-opacity="1" fill="#cfac6c" fill-rule="evenodd" stroke-linejoin="round" d="M 7231.393229 4239.912277 C 7194.00597 4246.487069 7158.309591 4221.502861 7151.546066 4184.120475 C 7144.782542 4146.738089 7169.394256 4110.858512 7206.781516 4103.908018 C 7329.088582 4082.117281 7526.921671 4098.648185 7845.746697 4217.933688 C 7845.746697 4217.933688 7727.197144 4196.894355 7487.092027 4201.402784 C 7404.426729 4202.905593 7318.003917 4224.884182 7231.393229 4239.912277 Z M 7231.393229 4239.912277 " stroke="#cfac6c" stroke-width="85.830002" stroke-opacity="1" stroke-miterlimit="1.5"/><path fill="#a18249" d="M 207.226562 134.933594 L 207.222656 134.933594 C 207.183594 134.914062 207.214844 134.851562 207.265625 134.785156 C 207.277344 134.722656 207.285156 134.660156 207.285156 134.59375 C 207.285156 134.570312 207.285156 134.546875 207.285156 134.527344 L 207.292969 134.539062 L 207.378906 134.652344 C 207.347656 134.6875 207.300781 134.734375 207.265625 134.785156 C 207.253906 134.835938 207.242188 134.886719 207.226562 134.933594 C 207.636719 135.132812 207.59375 134.949219 207.378906 134.652344 L 207.417969 134.609375 C 207.417969 134.609375 208.128906 133.808594 208.128906 133.808594 C 208.527344 133.425781 209 133.144531 209.496094 132.90625 C 210 132.667969 210.542969 132.523438 211.09375 132.429688 C 212.164062 132.230469 213.230469 132.542969 214.257812 133 C 214.828125 133.25 215.367188 133.585938 215.910156 133.917969 C 216.148438 134.0625 216.394531 134.199219 216.636719 134.34375 C 217.0625 134.59375 217.480469 134.816406 217.890625 135.066406 C 218.347656 135.351562 218.78125 135.554688 219.1875 135.84375 C 219.578125 136.292969 220.261719 136.34375 220.714844 135.953125 C 221.164062 135.5625 221.214844 134.878906 220.824219 134.425781 C 220.605469 133.988281 220.367188 133.582031 220.074219 133.144531 C 219.800781 132.734375 219.484375 132.367188 219.132812 131.996094 C 218.792969 131.632812 218.414062 131.308594 218.007812 131.011719 C 217.597656 130.710938 217.152344 130.464844 216.699219 130.242188 C 214.675781 129.25 212.445312 128.84375 210.382812 129.441406 C 209.589844 129.683594 208.820312 130.003906 208.125 130.453125 C 207.421875 130.90625 206.773438 131.441406 206.246094 132.105469 C 206.246094 132.105469 205.375 133.429688 205.375 133.429688 C 205.359375 133.464844 205.15625 133.90625 205.097656 134.089844 C 205.035156 134.289062 205.007812 134.433594 205.007812 134.496094 C 205.011719 135 205.214844 135.289062 205.394531 135.421875 C 205.605469 135.582031 205.832031 135.71875 206.121094 135.707031 C 206.632812 135.71875 207.070312 135.390625 207.226562 134.933594 Z M 207.226562 134.933594 " fill-opacity="1" fill-rule="evenodd"/><path fill="#a18249" d="M 176.375 134.746094 C 176.359375 134.847656 176.355469 134.976562 176.445312 134.933594 C 176.425781 134.886719 176.414062 134.835938 176.40625 134.785156 L 176.386719 134.761719 L 176.375 134.746094 L 176.378906 134.707031 C 176.382812 134.691406 176.382812 134.675781 176.386719 134.660156 L 176.386719 134.644531 C 176.390625 134.695312 176.394531 134.738281 176.40625 134.785156 C 176.453125 134.851562 176.488281 134.914062 176.445312 134.933594 C 176.597656 135.390625 177.039062 135.71875 177.546875 135.707031 C 177.734375 135.714844 178.941406 135.257812 178.570312 134.089844 C 178.511719 133.90625 178.3125 133.464844 178.292969 133.429688 C 178.292969 133.429688 177.421875 132.105469 177.421875 132.105469 C 176.898438 131.441406 176.25 130.90625 175.542969 130.453125 C 174.847656 130.003906 174.078125 129.683594 173.285156 129.441406 C 171.222656 128.84375 168.992188 129.25 166.96875 130.242188 C 166.515625 130.464844 166.070312 130.710938 165.660156 131.011719 C 165.253906 131.308594 164.875 131.632812 164.535156 131.996094 C 164.183594 132.367188 163.867188 132.734375 163.59375 133.144531 C 163.300781 133.582031 163.0625 133.988281 162.84375 134.425781 C 162.453125 134.878906 162.503906 135.5625 162.957031 135.953125 C 163.40625 136.34375 164.09375 136.292969 164.484375 135.84375 C 164.886719 135.554688 165.320312 135.351562 165.78125 135.066406 C 166.1875 134.816406 166.605469 134.59375 167.035156 134.34375 C 167.273438 134.199219 167.519531 134.0625 167.757812 133.917969 C 168.300781 133.585938 168.84375 133.25 169.414062 133 C 170.441406 132.542969 171.503906 132.230469 172.574219 132.429688 C 173.125 132.523438 173.667969 132.667969 174.171875 132.90625 C 174.667969 133.144531 175.144531 133.425781 175.539062 133.808594 C 175.539062 133.808594 176.25 134.609375 176.25 134.609375 C 176.253906 134.617188 176.320312 134.675781 176.375 134.746094 Z M 176.464844 134.140625 C 176.410156 134.28125 176.378906 134.433594 176.382812 134.59375 L 176.382812 134.597656 C 176.367188 134.410156 176.414062 134.257812 176.464844 134.140625 Z M 177.125 133.5 C 176.882812 133.578125 176.683594 133.722656 176.550781 133.972656 L 176.546875 133.980469 C 176.679688 133.761719 176.882812 133.59375 177.125 133.5 Z M 177.125 133.5 " fill-opacity="1" fill-rule="evenodd"/><path fill="#a18249" d="M 214.441406 129.519531 C 214.355469 129.503906 214.214844 129.472656 214.160156 129.464844 C 213.40625 129.339844 212.988281 129.828125 212.871094 129.929688 C 212.242188 130.554688 212.242188 131.574219 212.871094 132.199219 C 213.195312 132.523438 213.621094 132.679688 214.046875 132.667969 C 214.15625 132.679688 214.273438 132.6875 214.289062 132.683594 C 214.574219 132.664062 214.855469 132.636719 215.128906 132.566406 C 215.378906 132.5 215.625 132.433594 215.859375 132.335938 C 216.628906 132.023438 217.316406 131.585938 217.832031 130.972656 C 218.328125 130.382812 218.730469 129.707031 218.914062 128.9375 C 219.121094 128.316406 218.785156 127.648438 218.167969 127.441406 C 217.546875 127.234375 216.875 127.570312 216.667969 128.1875 C 216.511719 128.550781 216.242188 128.839844 215.945312 129.085938 C 215.675781 129.316406 215.335938 129.429688 214.980469 129.503906 Z M 214.441406 129.519531 " fill-opacity="1" fill-rule="evenodd"/><path fill="#a18249" d="M 169.621094 132.667969 C 170.046875 132.679688 170.476562 132.523438 170.800781 132.199219 C 171.425781 131.574219 171.425781 130.554688 170.800781 129.929688 C 170.679688 129.828125 170.265625 129.339844 169.507812 129.464844 C 169.453125 129.472656 169.316406 129.503906 169.226562 129.519531 L 168.6875 129.503906 C 168.332031 129.429688 167.992188 129.316406 167.722656 129.085938 C 167.425781 128.839844 167.15625 128.550781 167 128.1875 C 166.792969 127.570312 166.121094 127.234375 165.503906 127.441406 C 164.882812 127.648438 164.546875 128.316406 164.753906 128.9375 C 164.9375 129.707031 165.339844 130.382812 165.835938 130.972656 C 166.351562 131.585938 167.039062 132.023438 167.808594 132.335938 C 168.042969 132.433594 168.289062 132.5 168.539062 132.566406 C 168.8125 132.636719 169.097656 132.664062 169.378906 132.683594 C 169.398438 132.6875 169.515625 132.679688 169.621094 132.667969 Z M 169.621094 132.667969 " fill-opacity="1" fill-rule="evenodd"/><path fill="#a18249" d="M 218.09375 131.292969 L 217.953125 131.234375 L 217.929688 131.261719 L 218.09375 131.292969 C 218.160156 131.320312 218.226562 131.34375 218.226562 131.34375 C 218.226562 131.34375 217.132812 131.113281 216.941406 131.140625 C 216.652344 131.179688 216.449219 131.371094 216.242188 131.53125 C 215.925781 131.769531 215.6875 132.234375 215.785156 133.074219 C 215.957031 133.789062 216.585938 134.28125 217.285156 134.304688 L 217.5625 134.347656 L 218.765625 134.238281 C 219.320312 134.09375 219.882812 133.890625 220.34375 133.523438 C 220.8125 133.152344 221.238281 132.738281 221.484375 132.207031 C 221.828125 131.648438 221.648438 130.914062 221.089844 130.570312 C 220.527344 130.226562 219.792969 130.40625 219.449219 130.96875 C 219.328125 131.121094 219.128906 131.183594 218.949219 131.269531 C 218.765625 131.355469 218.554688 131.339844 218.359375 131.34375 Z M 218.871094 133.203125 C 218.785156 133.46875 218.625 133.710938 218.414062 133.902344 C 218.636719 133.734375 218.804688 133.515625 218.871094 133.203125 Z M 218.9375 132.90625 C 218.972656 132.746094 218.988281 132.554688 218.90625 132.332031 C 218.953125 132.523438 218.964844 132.71875 218.9375 132.90625 Z M 218.9375 132.90625 " fill-opacity="1" fill-rule="evenodd"/><path fill="#a18249" d="M 166.382812 134.304688 C 167.085938 134.28125 167.710938 133.789062 167.882812 133.074219 C 167.984375 132.234375 167.742188 131.769531 167.425781 131.53125 C 167.21875 131.371094 167.015625 131.179688 166.726562 131.140625 C 166.535156 131.113281 165.445312 131.34375 165.445312 131.34375 C 165.445312 131.34375 165.507812 131.320312 165.574219 131.292969 L 165.738281 131.261719 C 165.738281 131.261719 165.714844 131.234375 165.714844 131.234375 L 165.574219 131.292969 L 165.308594 131.34375 C 165.113281 131.339844 164.902344 131.355469 164.71875 131.269531 C 164.539062 131.183594 164.339844 131.121094 164.21875 130.96875 C 163.875 130.40625 163.140625 130.226562 162.582031 130.570312 C 162.019531 130.914062 161.84375 131.648438 162.183594 132.207031 C 162.429688 132.738281 162.859375 133.152344 163.324219 133.523438 C 163.789062 133.890625 164.347656 134.09375 164.902344 134.238281 C 164.902344 134.238281 166.105469 134.347656 166.105469 134.347656 Z M 164.796875 133.203125 C 164.863281 133.515625 165.03125 133.734375 165.253906 133.902344 C 165.042969 133.710938 164.886719 133.46875 164.796875 133.203125 Z M 164.730469 132.90625 C 164.707031 132.71875 164.714844 132.523438 164.761719 132.332031 C 164.679688 132.554688 164.695312 132.746094 164.730469 132.90625 Z M 164.730469 132.90625 " fill-opacity="1" fill-rule="evenodd"/><path fill="#ffc1c1" d="M 189.988281 153.289062 C 190.316406 152.566406 191.039062 152.101562 191.835938 152.101562 C 192.628906 152.101562 193.351562 152.566406 193.683594 153.289062 C 193.90625 153.777344 194.128906 154.269531 194.339844 154.734375 C 194.628906 155.363281 194.574219 156.09375 194.199219 156.675781 C 193.828125 157.253906 193.183594 157.605469 192.492188 157.605469 C 192.058594 157.605469 191.613281 157.605469 191.175781 157.605469 C 190.484375 157.605469 189.84375 157.253906 189.46875 156.675781 C 189.097656 156.09375 189.042969 155.363281 189.328125 154.734375 C 189.542969 154.269531 189.765625 153.777344 189.988281 153.289062 Z M 189.988281 153.289062 " fill-opacity="1" fill-rule="evenodd"/><path fill="#0f7dc8" d="M 216.464844 137.113281 C 216.464844 137.449219 216.4375 137.78125 216.382812 138.109375 C 216.328125 138.441406 216.246094 138.761719 216.140625 139.070312 C 216.035156 139.382812 215.90625 139.675781 215.75 139.957031 C 215.597656 140.238281 215.421875 140.496094 215.226562 140.734375 C 215.03125 140.972656 214.816406 141.183594 214.585938 141.371094 C 214.355469 141.558594 214.113281 141.714844 213.855469 141.84375 C 213.601562 141.972656 213.335938 142.070312 213.0625 142.136719 C 212.792969 142.199219 212.515625 142.234375 212.238281 142.234375 C 211.960938 142.234375 211.6875 142.199219 211.414062 142.136719 C 211.144531 142.070312 210.878906 141.972656 210.625 141.84375 C 210.367188 141.714844 210.125 141.558594 209.894531 141.371094 C 209.664062 141.183594 209.449219 140.972656 209.253906 140.734375 C 209.058594 140.496094 208.882812 140.238281 208.726562 139.957031 C 208.574219 139.675781 208.445312 139.382812 208.335938 139.070312 C 208.230469 138.761719 208.152344 138.441406 208.097656 138.109375 C 208.042969 137.78125 208.015625 137.449219 208.015625 137.113281 C 208.015625 136.773438 208.042969 136.441406 208.097656 136.113281 C 208.152344 135.78125 208.230469 135.460938 208.335938 135.152344 C 208.445312 134.839844 208.574219 134.546875 208.726562 134.265625 C 208.882812 133.988281 209.058594 133.726562 209.253906 133.488281 C 209.449219 133.253906 209.664062 133.039062 209.894531 132.851562 C 210.125 132.667969 210.367188 132.507812 210.625 132.378906 C 210.878906 132.25 211.144531 132.152344 211.414062 132.089844 C 211.6875 132.023438 211.960938 131.988281 212.238281 131.988281 C 212.515625 131.988281 212.792969 132.023438 213.0625 132.089844 C 213.335938 132.152344 213.601562 132.25 213.855469 132.378906 C 214.113281 132.507812 214.355469 132.667969 214.585938 132.851562 C 214.816406 133.039062 215.03125 133.253906 215.226562 133.488281 C 215.421875 133.726562 215.597656 133.988281 215.75 134.265625 C 215.90625 134.546875 216.035156 134.839844 216.140625 135.152344 C 216.246094 135.460938 216.328125 135.78125 216.382812 136.113281 C 216.4375 136.441406 216.464844 136.773438 216.464844 137.113281 Z M 216.464844 137.113281 " fill-opacity="1" fill-rule="nonzero"/><path fill="#0f7dc8" d="M 167.207031 137.113281 C 167.207031 137.449219 167.230469 137.78125 167.285156 138.109375 C 167.339844 138.441406 167.421875 138.761719 167.527344 139.070312 C 167.632812 139.382812 167.761719 139.675781 167.917969 139.957031 C 168.070312 140.238281 168.246094 140.496094 168.441406 140.734375 C 168.636719 140.972656 168.851562 141.183594 169.082031 141.371094 C 169.3125 141.558594 169.554688 141.714844 169.8125 141.84375 C 170.070312 141.972656 170.332031 142.070312 170.605469 142.136719 C 170.875 142.199219 171.152344 142.234375 171.429688 142.234375 C 171.707031 142.234375 171.980469 142.199219 172.253906 142.136719 C 172.523438 142.070312 172.789062 141.972656 173.046875 141.84375 C 173.300781 141.714844 173.542969 141.558594 173.773438 141.371094 C 174.003906 141.183594 174.21875 140.972656 174.414062 140.734375 C 174.609375 140.496094 174.785156 140.238281 174.941406 139.957031 C 175.09375 139.675781 175.226562 139.382812 175.332031 139.070312 C 175.4375 138.761719 175.515625 138.441406 175.570312 138.109375 C 175.625 137.78125 175.652344 137.449219 175.652344 137.113281 C 175.652344 136.773438 175.625 136.441406 175.570312 136.113281 C 175.515625 135.78125 175.4375 135.460938 175.332031 135.152344 C 175.226562 134.839844 175.09375 134.546875 174.941406 134.265625 C 174.785156 133.988281 174.609375 133.726562 174.414062 133.488281 C 174.21875 133.253906 174.003906 133.039062 173.773438 132.851562 C 173.542969 132.667969 173.300781 132.507812 173.046875 132.378906 C 172.789062 132.25 172.523438 132.152344 172.253906 132.089844 C 171.980469 132.023438 171.707031 131.988281 171.429688 131.988281 C 171.152344 131.988281 170.875 132.023438 170.605469 132.089844 C 170.332031 132.152344 170.070312 132.25 169.8125 132.378906 C 169.554688 132.507812 169.3125 132.667969 169.082031 132.851562 C 168.851562 133.039062 168.636719 133.253906 168.441406 133.488281 C 168.246094 133.726562 168.070312 133.988281 167.917969 134.265625 C 167.761719 134.546875 167.632812 134.839844 167.527344 135.152344 C 167.421875 135.460938 167.339844 135.78125 167.285156 136.113281 C 167.230469 136.441406 167.207031 136.773438 167.207031 137.113281 Z M 167.207031 137.113281 " fill-opacity="1" fill-rule="nonzero"/><path fill="#ffc1c1" d="M 225.367188 150.183594 C 225.367188 150.488281 225.320312 150.789062 225.226562 151.085938 C 225.132812 151.386719 224.996094 151.675781 224.8125 151.957031 C 224.628906 152.238281 224.40625 152.503906 224.140625 152.757812 C 223.875 153.011719 223.570312 153.246094 223.234375 153.460938 C 222.894531 153.675781 222.527344 153.867188 222.128906 154.035156 C 221.734375 154.203125 221.3125 154.347656 220.871094 154.464844 C 220.429688 154.578125 219.972656 154.667969 219.503906 154.726562 C 219.035156 154.785156 218.5625 154.816406 218.085938 154.816406 C 217.605469 154.816406 217.132812 154.785156 216.664062 154.726562 C 216.195312 154.667969 215.738281 154.578125 215.296875 154.464844 C 214.855469 154.347656 214.4375 154.203125 214.039062 154.035156 C 213.640625 153.867188 213.273438 153.675781 212.933594 153.460938 C 212.597656 153.246094 212.292969 153.011719 212.027344 152.757812 C 211.761719 152.503906 211.539062 152.238281 211.355469 151.957031 C 211.171875 151.675781 211.035156 151.386719 210.941406 151.085938 C 210.847656 150.789062 210.800781 150.488281 210.800781 150.183594 C 210.800781 149.878906 210.847656 149.578125 210.941406 149.28125 C 211.035156 148.980469 211.171875 148.691406 211.355469 148.410156 C 211.539062 148.128906 211.761719 147.863281 212.027344 147.609375 C 212.292969 147.355469 212.597656 147.121094 212.933594 146.90625 C 213.273438 146.691406 213.640625 146.5 214.039062 146.332031 C 214.4375 146.164062 214.855469 146.019531 215.296875 145.902344 C 215.738281 145.785156 216.195312 145.699219 216.664062 145.640625 C 217.132812 145.582031 217.605469 145.550781 218.085938 145.550781 C 218.5625 145.550781 219.035156 145.582031 219.503906 145.640625 C 219.972656 145.699219 220.429688 145.785156 220.871094 145.902344 C 221.3125 146.019531 221.734375 146.164062 222.128906 146.332031 C 222.527344 146.5 222.894531 146.691406 223.234375 146.90625 C 223.570312 147.121094 223.875 147.355469 224.140625 147.609375 C 224.40625 147.863281 224.628906 148.128906 224.8125 148.410156 C 224.996094 148.691406 225.132812 148.980469 225.226562 149.28125 C 225.320312 149.578125 225.367188 149.878906 225.367188 150.183594 Z M 225.367188 150.183594 " fill-opacity="1" fill-rule="nonzero"/><path fill="#ffc1c1" d="M 158.304688 150.183594 C 158.304688 150.488281 158.351562 150.789062 158.441406 151.085938 C 158.535156 151.386719 158.675781 151.675781 158.859375 151.957031 C 159.039062 152.238281 159.265625 152.503906 159.53125 152.757812 C 159.796875 153.011719 160.097656 153.246094 160.4375 153.460938 C 160.773438 153.675781 161.140625 153.867188 161.539062 154.035156 C 161.9375 154.203125 162.355469 154.347656 162.800781 154.464844 C 163.242188 154.578125 163.695312 154.667969 164.164062 154.726562 C 164.632812 154.785156 165.109375 154.816406 165.585938 154.816406 C 166.0625 154.816406 166.539062 154.785156 167.007812 154.726562 C 167.476562 154.667969 167.929688 154.578125 168.371094 154.464844 C 168.816406 154.347656 169.234375 154.203125 169.632812 154.035156 C 170.03125 153.867188 170.398438 153.675781 170.734375 153.460938 C 171.074219 153.246094 171.375 153.011719 171.640625 152.757812 C 171.90625 152.503906 172.132812 152.238281 172.3125 151.957031 C 172.496094 151.675781 172.636719 151.386719 172.726562 151.085938 C 172.820312 150.789062 172.867188 150.488281 172.867188 150.183594 C 172.867188 149.878906 172.820312 149.578125 172.726562 149.28125 C 172.636719 148.980469 172.496094 148.691406 172.3125 148.410156 C 172.132812 148.128906 171.90625 147.863281 171.640625 147.609375 C 171.375 147.355469 171.074219 147.121094 170.734375 146.90625 C 170.398438 146.691406 170.03125 146.5 169.632812 146.332031 C 169.234375 146.164062 168.816406 146.019531 168.371094 145.902344 C 167.929688 145.785156 167.476562 145.699219 167.007812 145.640625 C 166.539062 145.582031 166.0625 145.550781 165.585938 145.550781 C 165.109375 145.550781 164.632812 145.582031 164.164062 145.640625 C 163.695312 145.699219 163.242188 145.785156 162.800781 145.902344 C 162.355469 146.019531 161.9375 146.164062 161.539062 146.332031 C 161.140625 146.5 160.773438 146.691406 160.4375 146.90625 C 160.097656 147.121094 159.796875 147.355469 159.53125 147.609375 C 159.265625 147.863281 159.039062 148.128906 158.859375 148.410156 C 158.675781 148.691406 158.535156 148.980469 158.441406 149.28125 C 158.351562 149.578125 158.304688 149.878906 158.304688 150.183594 Z M 158.304688 150.183594 " fill-opacity="1" fill-rule="nonzero"/><path stroke-linecap="round" transform="matrix(0.0207917, 0, 0, 0.0207944, 57.616914, 37.091442)" fill="none" stroke-linejoin="round" d="M 6204.41957 6264.760213 C 6362.798766 6389.493401 6640.85477 6415.792567 6815.015523 6244.284434 " stroke="#ff7c7c" stroke-width="171.64999" stroke-opacity="1" stroke-miterlimit="1.5"/><path fill="#ffffff" d="M 214.257812 135.441406 C 214.257812 135.660156 214.21875 135.871094 214.136719 136.074219 C 214.054688 136.277344 213.9375 136.457031 213.785156 136.609375 C 213.632812 136.765625 213.457031 136.886719 213.257812 136.96875 C 213.058594 137.050781 212.855469 137.09375 212.640625 137.09375 C 212.421875 137.09375 212.21875 137.050781 212.019531 136.96875 C 211.820312 136.886719 211.644531 136.765625 211.492188 136.609375 C 211.339844 136.457031 211.222656 136.277344 211.140625 136.074219 C 211.058594 135.871094 211.019531 135.660156 211.019531 135.441406 C 211.019531 135.222656 211.058594 135.011719 211.140625 134.8125 C 211.222656 134.609375 211.339844 134.429688 211.492188 134.273438 C 211.644531 134.121094 211.820312 134 212.019531 133.917969 C 212.21875 133.832031 212.421875 133.792969 212.640625 133.792969 C 212.855469 133.792969 213.058594 133.832031 213.257812 133.917969 C 213.457031 134 213.632812 134.121094 213.785156 134.273438 C 213.9375 134.429688 214.054688 134.609375 214.136719 134.8125 C 214.21875 135.011719 214.257812 135.222656 214.257812 135.441406 Z M 214.257812 135.441406 " fill-opacity="1" fill-rule="nonzero"/><path fill="#ffffff" d="M 173.675781 135.441406 C 173.675781 135.660156 173.632812 135.871094 173.550781 136.074219 C 173.46875 136.277344 173.351562 136.457031 173.199219 136.609375 C 173.046875 136.765625 172.875 136.886719 172.675781 136.96875 C 172.476562 137.050781 172.269531 137.09375 172.054688 137.09375 C 171.839844 137.09375 171.632812 137.050781 171.433594 136.96875 C 171.234375 136.886719 171.058594 136.765625 170.910156 136.609375 C 170.757812 136.457031 170.640625 136.277344 170.558594 136.074219 C 170.476562 135.871094 170.433594 135.660156 170.433594 135.441406 C 170.433594 135.222656 170.476562 135.011719 170.558594 134.8125 C 170.640625 134.609375 170.757812 134.429688 170.910156 134.273438 C 171.058594 134.121094 171.234375 134 171.433594 133.917969 C 171.632812 133.832031 171.839844 133.792969 172.054688 133.792969 C 172.269531 133.792969 172.476562 133.832031 172.675781 133.917969 C 172.875 134 173.046875 134.121094 173.199219 134.273438 C 173.351562 134.429688 173.46875 134.609375 173.550781 134.8125 C 173.632812 135.011719 173.675781 135.222656 173.675781 135.441406 Z M 173.675781 135.441406 " fill-opacity="1" fill-rule="nonzero"/></svg>